Coordinates
version=1
nRows=9
nColumns=36
inDegrees=yes

Units are S.I. units (second, meters, Newtons, ...)
If the header above contains a line with 'inDegrees', this indicates whether rotational values are in degrees (yes) or radians (no).

endheader
time	pelvis_tilt	pelvis_list	pelvis_rotation	pelvis_tx	pelvis_ty	pelvis_tz	hip_flexion_r	hip_adduction_r	hip_rotation_r	knee_angle_r	knee_angle_r_beta	ankle_angle_r	subtalar_angle_r	mtp_angle_r	hip_flexion_l	hip_adduction_l	hip_rotation_l	knee_angle_l	knee_angle_l_beta	ankle_angle_l	subtalar_angle_l	mtp_angle_l	lumbar_extension	lumbar_bending	lumbar_rotation	arm_flex_r	arm_add_r	arm_rot_r	elbow_flex_r	pro_sup_r	arm_flex_l	arm_add_l	arm_rot_l	elbow_flex_l	pro_sup_l
      1.35000000	    -16.44906524	      8.20958576	      4.00886378	     -0.37437897	      1.23441647	     -0.55742628	     31.10367017	     -9.98635401	    -13.21493082	      2.61143027	      0.04557806	    -35.47867345	     -4.08472524	     -6.71198171	     30.70922306	      4.38269337	     -3.17552799	     13.81400401	      0.24109985	    -22.24898353	     10.73512047	     -6.71198171	    -14.20525954	     -3.82568415	     -5.68716597	    -73.54514985	    -18.56596123	    -75.54904777	     81.83686314	    107.00330561	    -71.25463628	    -27.75248730	    -65.33536394	    105.89806846	    106.05368743
      1.36000000	    -16.31413593	      8.17775502	      3.97329102	     -0.36521722	      1.21053503	     -0.55833665	     31.61075051	    -10.50126610	    -13.03195412	      3.17842588	      0.05547400	    -35.36547276	     -4.62642093	     -6.80525178	     30.34701856	      4.37748977	     -4.16006206	     11.54077240	      0.20142448	    -22.04619650	     11.07110240	     -6.80525178	    -14.72146965	     -3.33578742	     -5.57250116	    -73.16533535	    -17.74791778	    -75.98404525	     82.62915052	    103.51941691	    -71.43939544	    -25.90824051	    -64.95113409	    107.59098569	    103.01930240
      1.37000000	    -16.26048817	      8.19174635	      3.90173096	     -0.35671622	      1.18554696	     -0.55869243	     32.34310037	    -10.94691594	    -11.79865430	      4.03662993	      0.07045248	    -36.59776231	     -7.74016882	     -6.98299819	     30.67423954	      4.32387573	     -5.60717724	     10.76910826	      0.18795640	    -22.14638604	     10.99417671	     -6.98299819	    -15.26506342	     -3.08210911	     -5.54701238	    -72.13740170	    -17.10757563	    -76.32050076	     82.67696592	    105.96082188	    -71.42386649	    -23.90198041	    -65.19268497	    108.68040673	    106.41798522
      1.38000000	    -16.17694562	      8.18493753	      3.96393673	     -0.34880899	      1.15973685	     -0.55903514	     33.21349553	    -11.47352205	    -10.75965302	      5.37924024	      0.09388545	    -37.30537677	     -9.60178182	     -7.10222876	     31.42652798	      4.28321274	     -6.64269742	     11.09624773	      0.19366606	    -22.74244769	     10.73708132	     -7.10222876	    -15.97283812	     -2.78182759	     -5.49756284	    -70.76119890	    -16.26782997	    -76.23371871	     83.03908254	    101.73782588	    -70.97196033	    -22.19700538	    -64.64918059	    110.31979843	    102.69281819
      1.39000000	    -16.08891674	      8.13776719	      4.11886848	     -0.34128307	      1.13312603	     -0.55938576	     34.27095529	    -12.02195980	     -9.76058249	      7.11055765	      0.12410264	    -38.17630666	    -10.29922632	     -7.17571568	     32.52436495	      4.22986441	     -6.99359131	     12.41100734	      0.21661294	    -22.63261326	     10.28327112	     -7.17571568	    -16.79591196	     -2.43022764	     -5.51535597	    -68.89954494	    -15.40009371	    -76.42981601	     82.68213415	    104.91029799	    -70.03934112	    -20.58191448	    -64.36482594	    111.00029101	    106.38566239
      1.40000000	    -15.87407320	      8.03497118	      4.34945866	     -0.33405986	      1.10602301	     -0.55970657	     35.38106531	    -12.54576256	     -8.97657703	      9.34252495	      0.16305782	    -38.48772817	     -9.54102143	     -7.19089424	     33.69202210	      4.17687736	     -6.71845844	     14.36898244	      0.25078605	    -22.14497227	      9.95912176	     -7.19089424	    -17.85690509	     -1.94072101	     -5.47911318	    -66.87555252	    -14.38068771	    -76.29552739	     82.58980562	    103.67074747	    -68.64875966	    -19.23768007	    -63.33317788	    112.01952202	    105.33978515
      1.41000000	    -15.86523711	      7.62164919	      4.36493715	     -0.32760534	      1.07778192	     -0.55895043	     37.09294706	    -12.43881628	     -8.10063753	     13.08444146	      0.22836658	    -36.02649338	    -10.57925156	     -7.21570828	     35.59553615	      3.47983575	     -7.27341541	     17.30890033	      0.30209730	    -22.08647772	     10.40585132	     -7.21570828	    -18.78904849	     -1.35192239	     -5.18513540	    -64.23053588	    -13.56651885	    -76.09075607	     82.08535229	    101.96994301	    -67.15216641	    -18.03663922	    -62.18931475	    112.83702253	    103.94403824
      1.42000000	    -15.66485370	      7.16958990	      4.30318338	     -0.32180997	      1.04924594	     -0.55815320	     39.33666611	    -12.22229246	     -7.72385538	     19.76762671	      0.34501017	    -25.49273175	    -12.40960082	     -7.28866223	     37.51066899	      2.63104912	     -7.92360375	     20.92134369	      0.36514633	    -21.50472313	     10.55789294	     -7.28866223	    -20.06328147	     -0.69170545	     -4.72492825	    -61.57714820	    -12.77125964	    -75.79478989	     81.38946524	    103.02480821	    -65.26043426	    -17.12834937	    -60.91618393	    113.20232498	    106.57744947
      1.43000000	    -15.35479056	      6.91702397	      4.40193955	     -0.31689685	      1.02048822	     -0.55789475	     42.14076435	    -12.33788407	     -7.55358737	     28.23931900	      0.49286910	    -11.26708507	    -14.18893940	     -7.32969379	     39.59180572	      2.06541412	     -8.38886105	     26.04737960	      0.45461254	    -16.79750293	      9.25450913	     -7.32969379	    -21.63954813	     -0.19976003	     -4.49566613	    -58.75032682	    -12.05671516	    -74.96799173	     80.95547759	     99.45583799	    -63.18042416	    -16.41836193	    -59.09906203	    114.13108738	    103.50017643
